<?xml version="1.0" standalone="no"?><!DOCTYPE svg PUBLIC "-//W3C//DTD SVG 1.1//EN" "http://www.w3.org/Graphics/SVG/1.1/DTD/svg11.dtd"><svg t="1558405962841" class="icon" style="" viewBox="0 0 1024 1024" version="1.1" xmlns="http://www.w3.org/2000/svg" p-id="1178" xmlns:xlink="http://www.w3.org/1999/xlink" width="400" height="400"><defs><style type="text/css"></style></defs><path d="M153.6 819.2v-256a358.4 358.4 0 1 1 716.8 0v256h102.4a51.2 51.2 0 0 1 51.2 51.2v102.4a51.2 51.2 0 0 1-51.2 51.2H51.2a51.2 51.2 0 0 1-51.2-51.2v-102.4a51.2 51.2 0 0 1 51.2-51.2h102.4z m358.4-819.2a51.2 51.2 0 0 1 51.2 51.2v51.2a51.2 51.2 0 0 1-102.4 0V51.2a51.2 51.2 0 0 1 51.2-51.2z m412.672 176.128a51.2 51.2 0 0 1 0 72.3968l-36.1472 36.1984a51.2 51.2 0 0 1-72.448-72.448l36.1984-36.1984a51.2 51.2 0 0 1 72.448 0z m-825.344 0a51.2 51.2 0 0 1 72.3968 0l36.1984 36.1472a51.2 51.2 0 0 1-72.448 72.448l-36.1984-36.1984a51.2 51.2 0 0 1 0-72.448z" p-id="1179" fill="#BFCBD9"></path></svg>