<?xml version="1.0" standalone="no"?><!DOCTYPE svg PUBLIC "-//W3C//DTD SVG 1.1//EN" "http://www.w3.org/Graphics/SVG/1.1/DTD/svg11.dtd"><svg t="1557990655306" class="icon" style="" viewBox="0 0 1024 1024" version="1.1" xmlns="http://www.w3.org/2000/svg" p-id="901" xmlns:xlink="http://www.w3.org/1999/xlink" width="400" height="400"><defs><style type="text/css"></style></defs><path d="M953.10894354 844.16191737V331.59380385c0-35.34952507-30.93083443-66.2803595-66.28035951-66.28035949h-66.2803595c-35.34952507 0-66.2803595 30.93083443-66.2803595 66.28035949V844.16191737h-66.28035952V137.17141597c0-35.34952507-30.93083443-66.2803595-66.2803595-66.28035951h-66.28035951c-35.34952507 0-66.2803595 30.93083443-66.28035951 66.28035951v706.9905014h-66.28035951v-384.42608513c0-35.34952507-30.93083443-66.2803595-66.28035949-66.2803595h-66.28035952c-35.34952507 0-66.2803595 30.93083443-66.28035949 66.2803595V844.16191737H179.83808263V70.89105646C179.83808263 35.54153141 148.90724819 4.61069695 113.55772312 4.61069695S47.27736361 35.54153141 47.27736361 70.89105646v835.13252978c0 35.34952507 30.93083443 66.2803595 66.28035951 66.28035951h835.13252978c35.34952507 0 66.2803595-30.93083443 66.28035951-66.28035951s-26.51214381-61.86166887-61.86166887-61.86166887z" p-id="902" fill="#BFCBD9"></path></svg>