<?xml version="1.0" standalone="no"?><!DOCTYPE svg PUBLIC "-//W3C//DTD SVG 1.1//EN" "http://www.w3.org/Graphics/SVG/1.1/DTD/svg11.dtd"><svg t="1557990512769" class="icon" style="" viewBox="0 0 1024 1024" version="1.1" xmlns="http://www.w3.org/2000/svg" p-id="1717" xmlns:xlink="http://www.w3.org/1999/xlink" width="400" height="400"><defs><style type="text/css"></style></defs><path d="M500.61227001 503.04335899L500.61227001 220.845183 355.13082601 220.845183 355.13082601 503.04335899 209.649381 503.04335899 427.871548 721.201549 646.093715 503.04335899Z" p-id="1718" fill="#BFCBD9"></path><path d="M103.00137399 907.115832L103.00137399 119.12332901 707.63863599 119.12332901 707.63863599 250.082219 792.854679 248.482819 792.854679 420.194427 891.953517 420.194427 891.953517 184.44283399 710.069724 2.623016 0.191928 2.623016 0.191928 1023.61614399 400.29788799 1023.61614399 397.610896 907.115832Z" p-id="1719" fill="#BFCBD9"></path><path d="M784.40984603 783.70611001m-39.98500603 0a0.625 0.625 0 1 0 79.970011 0 0.625 0.625 0 1 0-79.970011 0Z" p-id="1720" fill="#BFCBD9"></path><path d="M985.294515 736.811696l-25.142572 0c-4.03048899-14.77845801-9.66037702-28.78920401-17.081594-41.84030999l22.583531-22.64750702c15.09833799-14.97038602 15.09833799-39.34524601 0-54.443584l-13.62688999-13.56291399c-14.97038602-14.97038602-39.34524601-14.97038602-54.443584 0l-22.13569901 22.135699c-13.56291399-7.86904899-28.08546801-14.07472199-43.631638-18.233163L831.816069 582.30963401c0-21.240035-17.20954601-38.513557-38.449581-38.513557L774.301637 543.796076c-21.304011 0-38.513557 17.27352199-38.513557 38.513557l0 25.84630799c-15.41821799 4.158441-30.1327 10.364113-43.69561401 18.23316301l-22.07172301-22.135699c-15.09833799-14.97038602-39.34524601-14.97038602-54.50755998 0L601.950269 617.81631899c-14.97038602 15.03436199-14.97038602 39.40922199 0 54.44358401l22.583531 22.64750699c-7.293265 13.05110602-12.92315399 27.061852-16.95364199 41.84031001L582.50156201 736.74772c-21.304011 0-38.513557 17.20954601-38.513557 38.513557l0 19.192803c0 21.367987 17.20954601 38.641509 38.513557 38.641509l25.3345 0c4.158441 14.84243402 10.044233 29.045108 17.59340199 42.224166l-23.479195 23.41521897c-14.97038602 15.03436199-14.97038602 39.40922199 0 54.44358402l13.62689001 13.56291402c15.09833799 15.09833799 39.34524601 15.09833799 54.50755999 0l23.60714701-23.54317101c13.11508199 7.54916899 27.25378 13.24303399 42.09621399 17.337498l0 24.63076301c0 21.304011 17.20954601 38.513557 38.513557 38.51355699L793.49444 1023.68012c21.240035 0 38.44958098-17.20954601 38.449581-38.51355698l0-24.63076302c14.33062601-6.141697 29.045108-9.788329 42.16019-17.33749801l23.54317101 23.54317101c15.03436199 15.09833799 39.40922199 15.09833799 54.44358401 0l13.62688997-13.562914c15.09833799-14.97038602 15.09833799-39.34524601 0-54.443584l-23.41521899-23.415219c7.54916899-13.17905799 13.43496199-27.381732 17.59340199-42.22416601l25.39847601 0c21.112083 0 38.513557-17.27352199 38.513557-38.64150899l0-19.19280301C1023.808072 753.95726599 1006.47057401 736.811696 985.294515 736.811696zM783.89803799 891.377733c-58.410096 0-105.81631899-47.40622299-105.81631899-105.75234302 0-58.47407202 47.40622299-105.81631899 105.81631901-105.81631898s105.81631899 47.34224701 105.81631897 105.81631898C889.71435698 843.90753501 842.30813402 891.377733 783.89803799 891.377733z" p-id="1721" fill="#BFCBD9"></path></svg>