<?xml version="1.0" standalone="no"?><!DOCTYPE svg PUBLIC "-//W3C//DTD SVG 1.1//EN" "http://www.w3.org/Graphics/SVG/1.1/DTD/svg11.dtd"><svg t="1557990082353" class="icon" style="" viewBox="0 0 1024 1024" version="1.1" xmlns="http://www.w3.org/2000/svg" p-id="871" xmlns:xlink="http://www.w3.org/1999/xlink" width="400" height="400"><defs><style type="text/css"></style></defs><path d="M937.02280533 512a196.35556503 196.35556503 0 0 1 43.08223369-122.61866509 48.05326064 48.05326064 0 0 0 0-53.85279209l-82.85044939-138.36025047a52.19578311 52.19578311 0 0 0-51.36727861-27.3406483 196.35556503 196.35556503 0 0 1-205.46911449-125.10417857A48.05326064 48.05326064 0 0 0 594.85044939 14.8973037H448.20515397c-34.79718875 0-53.02428761 11.59906291-59.65232355 29.82616178a196.35556503 196.35556503 0 0 1-217.89668189 124.27567407 48.05326064 48.05326064 0 0 0-49.71026962 24.02663032l-82.85044938 137.53174598a48.05326064 48.05326064 0 0 0 0 54.6812966 196.35556503 196.35556503 0 0 1 0 252.69387061 48.05326064 48.05326064 0 0 0 0 54.68129659l82.85044938 137.53174598a48.05326064 48.05326064 0 0 0 49.71026962 24.02663032 196.35556503 196.35556503 0 0 1 217.89668189 124.27567408 48.05326064 48.05326064 0 0 0 45.56774716 29.82616178h145.81679092c34.79718875 0 53.02428761-11.59906291 59.65232355-29.82616178a196.35556503 196.35556503 0 0 1 212.09715042-125.10417856 52.19578311 52.19578311 0 0 0 51.36727862-27.3406483l82.85044938-138.36025048a48.05326064 48.05326064 0 0 0 0-53.8527921A196.35556503 196.35556503 0 0 1 937.02280533 512zM512 711.66958302A199.66958302 199.66958302 0 1 1 711.66958302 512 199.66958302 199.66958302 0 0 1 512 711.66958302z" p-id="872" fill="#BFCBD9"></path></svg>