<?xml version="1.0" standalone="no"?><!DOCTYPE svg PUBLIC "-//W3C//DTD SVG 1.1//EN" "http://www.w3.org/Graphics/SVG/1.1/DTD/svg11.dtd"><svg t="1559783856278" class="icon" style="" viewBox="0 0 1026 1024" version="1.1" xmlns="http://www.w3.org/2000/svg" p-id="1121" xmlns:xlink="http://www.w3.org/1999/xlink" width="400.78125" height="400"><defs><style type="text/css"></style></defs><path d="M351.73281701 135.50564733q25.773475 0 44.112294 17.843175t18.33881899 43.616651l0 247.82187799q0 25.773475-18.33881899 44.11229401t-44.112294 18.338819l-247.82187801 0q-25.773475 0-43.616651-18.338819t-17.843175-44.112294l0-247.821878q0-25.773475 17.843175-43.616651t43.616651-17.843175l247.82187801 0zM351.73281701 631.14940333q25.773475 0 44.112294 17.843175t18.33881899 43.616651l0 248.813166q0 25.773475-18.33881899 43.616651t-44.112294 17.843175l-247.82187801 0q-25.773475 0-43.616651-17.843175t-17.843175-43.616651l0-248.813166q0-25.773475 17.843175-43.616651t43.616651-17.843175l247.82187801 0zM848.367861 631.14940333q25.773475 0 43.616651 17.843175t17.843175 43.616651l0 248.813166q0 25.773475-17.843175 43.616651t-43.616651 17.843175l-247.82187799 0q-25.773475 0-44.112294-17.843175t-18.33881901-43.616651l0-248.813166q0-25.773475 18.33881901-43.616651t44.112294-17.843175l247.82187799 0zM986.156825 244.54727333q19.82575 19.82575 19.82575 46.590513t-19.82575 45.599226l-184.379477 184.379477q-19.82575 19.82575-46.094869 19.82575t-46.09486899-19.82575l-184.37947701-184.379477q-18.834463-18.834463-18.83446299-45.599226t18.83446299-46.590513l184.37947701-184.379477q19.82575-18.834463 46.09486899-18.834463t46.094869 18.834463z" p-id="1122" fill="#BFCBD9"></path></svg>