<?xml version="1.0" standalone="no"?><!DOCTYPE svg PUBLIC "-//W3C//DTD SVG 1.1//EN" "http://www.w3.org/Graphics/SVG/1.1/DTD/svg11.dtd"><svg t="1574125101472" class="icon" viewBox="0 0 1024 1024" version="1.1" xmlns="http://www.w3.org/2000/svg" p-id="2289" width="400" height="400" xmlns:xlink="http://www.w3.org/1999/xlink"><defs><style type="text/css"></style></defs><path d="M981.333333 128H693.333333V85.333333c0-46.933333-38.4-85.333333-85.333333-85.333333h-192c-46.933333 0-85.333333 38.4-85.333333 85.333333v42.666667H42.666667C19.2 128 0 147.2 0 170.666667s19.2 42.666667 42.666667 42.666666h938.666666c23.466667 0 42.666667-19.2 42.666667-42.666666s-19.2-42.666667-42.666667-42.666667zM128 277.333333H42.666667v569.6c0 98.133333 76.8 177.066667 170.666666 177.066667h597.333334c93.866667 0 170.666667-78.933333 170.666666-177.066667V281.6h-42.666666L128 277.333333z m320 522.666667c0 23.466667-19.2 42.666667-42.666667 42.666667s-42.666667-19.2-42.666666-42.666667v-384c0-23.466667 19.2-42.666667 42.666666-42.666667s42.666667 19.2 42.666667 42.666667v384z m213.333333 0c0 23.466667-19.2 42.666667-42.666666 42.666667s-42.666667-19.2-42.666667-42.666667v-384c0-23.466667 19.2-42.666667 42.666667-42.666667s42.666667 19.2 42.666666 42.666667v384z" p-id="2290" fill="#BFCBD9"></path></svg>