<?xml version="1.0" standalone="no"?><!DOCTYPE svg PUBLIC "-//W3C//DTD SVG 1.1//EN" "http://www.w3.org/Graphics/SVG/1.1/DTD/svg11.dtd"><svg t="1559265120692" class="icon" style="" viewBox="0 0 1024 1024" version="1.1" xmlns="http://www.w3.org/2000/svg" p-id="1278" xmlns:xlink="http://www.w3.org/1999/xlink" width="400" height="400"><defs><style type="text/css"></style></defs><path d="M1011.39927328 974.47010675h-50.71414089v-80.06943597c0-14.7446183-11.94841564-26.69303395-26.69027229-26.69303394h-106.76246992c-14.74185662 0-26.69027227 11.94841564-26.69027226 26.69303394v80.06943597h-55.32062588c-12.99095045-90.41607626-90.94079577-160.14577613-184.89872874-160.14577614h-42.70526413s-0.19746023-176.88018606-0.55785969-178.63523474c3.19250398-39.56937462-10.27897909-80.24480275-40.48487208-110.45069577L335.49564133 384.15651237l167.04445689-167.04583772a113.16819049 113.16819049 0 0 0 20.16856107-27.35583754h165.73265809c14.74323746 0 26.69165312-11.94979649 26.69165312-26.69165311v-26.68612975h62.27868279v26.73169749a26.68889142 26.68889142 0 0 0 13.3472074 23.11389453l92.53014354 53.41920808a26.65437042 26.65437042 0 0 0 13.34582658 3.57775856c4.60924667 0 9.21573166-1.19304647 13.34444571-3.57775856l92.53014355-53.42058891c12.76725424-7.36954747 17.14175797-23.69522853 9.7694488-36.45972109-7.37092832-12.7658734-23.6979902-17.14175797-36.45972108-9.76944883l-79.18431698 45.71273545-65.8398713-38.01040534v-76.02633402l65.8398713-38.01040535 79.18431698 45.71549713c12.76725424 7.37230915 29.09155445 2.99642459 36.45972108-9.76806798 7.37230915-12.76725424 2.99780542-29.09155445-9.7694488-36.46110194l-92.53014355-53.4205889a26.68198722 26.68198722 0 0 0-26.69027229 0l-92.53014354 53.4205889a26.69027227 26.69027227 0 0 0-13.3472074 23.11527538v26.73169749h-62.27868279v-26.69165311c0-14.74185662-11.94841564-26.69027227-26.69165312-26.69027225H459.08089499c-39.66741433-13.51705083-85.38014976-4.50154108-116.96136022 27.07690769L147.94017486 250.86947109c-71.87552652 12.72720987-126.65486282 75.60379675-126.65486281 151.08055614 0 50.49182553 24.5195905 95.3594864 62.2690169 123.3436065a140.22438558 140.22438558 0 0 0 16.24973483 19.51818504l146.17580951 146.17304784v123.339464H213.34093877c-93.95655213 0-171.90501659 69.72831904-184.89872874 160.14577614h-55.32200673v-80.06943597c0-14.7446183-11.94841564-26.69303395-26.69303395-26.69303394h-106.76246992c-14.74185662 0-26.69165312 11.94841564-26.6916531 26.69303394v80.06943597H-237.73971375c-14.74185662 0-26.69027227 11.94841564-26.69027226 26.68751059 0 14.7446183 11.94841564 26.69303395 26.69027226 26.69303395H1011.39789244c14.74185662 0 26.69027227-11.94841564 26.69027227-26.69303395 0.00138084-14.73909494-11.94841564-26.68751058-26.68889143-26.68751059zM661.74828343 82.99236717v53.38330622h-126.05143537c-0.08699297-18.39970397-4.61753171-36.77869532-13.57780783-53.38330622h139.6292432zM-80.26310292 974.47010675h-53.38192537v-53.38192537h53.38330621v53.38192537h-0.00138084z m460.12515989-880.0360925c11.34360736-11.34222653 26.42100831-17.5891504 42.463617-17.5891504 16.04398953 0 31.12139046 6.24554305 42.46499783 17.5891504 23.41491783 23.41491783 23.41491783 61.51369699 0 84.9313765L311.58500165 332.57658426c-18.80014781-36.93611118-52.09083921-65.28753495-92.35615761-77.5038337l160.63321293-160.63873631zM74.66033323 401.95002723c0-55.18944601 44.90080105-100.09162789 100.09024705-100.09162792 55.19082686 0 100.09162789 44.90356272 100.09162791 100.09162792s-44.90080105 100.09162789-100.09162791 100.0916279-100.09024705-44.90218189-100.09024705-100.0916279z m110.82904613 153.05377766c64.60401874-4.49049435 118.31044172-49.11512724 136.2807042-109.07399746l117.05663825 117.05663826c33.82093428 33.82231513 33.82093428 88.85296445 0 122.67389872-16.38781889 16.38505721-38.16782118 25.40609029-61.33971104 25.40609031-23.16912816 0-44.95327299-9.0210331-61.33694937-25.40609031l-130.66068204-130.65653952z m278.74481359 179.33808273v79.98934719H299.36041783v-73.68995136c23.53228931 15.81615079 50.8218465 23.75184299 78.12797378 23.751843 30.71266158-0.00552336 61.40461056-10.04285531 86.74580134-30.05123883z m-381.66992684 240.12821913c12.40133142-60.83984667 66.32592725-106.76246992 130.77667266-106.76246991h346.98044369c64.4466029 0 118.37119871 45.92400409 130.77667267 106.76246991H82.56426611z m824.74032172 0h-53.38330619v-53.38192537h53.38330619v53.38192537z" p-id="1279" fill="#BFCBD9"></path><path d="M174.75058028 375.25699328c-14.71562066 0-26.69165312 11.97465162-26.69165311 26.69303395 0 14.71700149 11.97465162 26.69303395 26.69165311 26.69303395 14.71838233 0 26.69303395-11.97603246 26.69303395-26.69303395 0-14.71838233-11.97465162-26.69303395-26.69303395-26.69303395z" p-id="1280" fill="#BFCBD9"></path></svg>