<?xml version="1.0" standalone="no"?><!DOCTYPE svg PUBLIC "-//W3C//DTD SVG 1.1//EN" "http://www.w3.org/Graphics/SVG/1.1/DTD/svg11.dtd"><svg t="1557990477765" class="icon" style="" viewBox="0 0 1024 1024" version="1.1" xmlns="http://www.w3.org/2000/svg" p-id="1537" xmlns:xlink="http://www.w3.org/1999/xlink" width="400" height="400"><defs><style type="text/css"></style></defs><path d="M383.26249913 82.34207125C229.58300396 209.89789009 140.16141722 294.40770289 6.29294634 441.1275091c-33.29076611 43.64585097-27.88471118 124.84720382 0 124.84720382 86.60740657 0 124.84720382 0 124.84720381 0s0 155.53988381 0 312.11800834c0 45.91234557 6.54240669 124.84596107 54.85164773 124.84596107 79.0963062 0 194.84151717 0 194.84151716 0L380.83331382 690.81446384l249.69440644 0 0 312.12421727c0 0 100.90805475 0 179.99194309 0 36.35581201 0 69.70246334-33.03493177 69.70246334-124.84596107 0-160.61683151 0-312.11800834 0-312.11800834s48.94510163 0 124.84596106 0c37.12331503 0 43.1478429-88.34112019 0-124.84720382C882.53084589 316.49391501 744.59386129 195.95988172 611.08306162 86.46150279 505.6817592 4.16353969 448.43321602 15.07500213 383.26249913 82.34207125z" p-id="1538" fill="#BFCBD9"></path></svg>