<?xml version="1.0" standalone="no"?><!DOCTYPE svg PUBLIC "-//W3C//DTD SVG 1.1//EN" "http://www.w3.org/Graphics/SVG/1.1/DTD/svg11.dtd"><svg t="1562657279418" class="icon" viewBox="0 0 1024 1024" version="1.1" xmlns="http://www.w3.org/2000/svg" p-id="1772" width="800" height="800" xmlns:xlink="http://www.w3.org/1999/xlink"><defs><style type="text/css"></style></defs><path d="M963.34885925 433.59952592l-70.3905185-262.62945184-178.88900742 47.93837037-25.2434963-94.17765927-201.8266074-116.50844443c-37.0157037-21.35988148-84.71134815-8.61677037-106.07122963 28.39893333L11.74186667 675.84c-21.35988148 37.0157037-8.61677037 84.71134815 28.39893333 106.07122963l403.65321482 233.01688889c37.0157037 21.35988148 84.71134815 8.61677037 106.07122963-28.39893334l252.43496296-437.27075555-18.08308149-67.72053333 179.13173333-47.93837038zM482.75152592 947.69303703L79.09831111 714.67614815l369.06477037-639.21872593 167.48088889 96.72628148 99.76035555 372.5842963-232.6528 402.92503703zM734.09422222 294.03211852l93.0853926-25.00077037 30.21937777 112.50346667-93.08539259 25.00077036-30.21937778-112.50346666zM937.13445925 589.55093333s-77.6722963 68.57007408-77.67229628 113.35300742 34.83117037 80.9490963 77.67229628 80.94909628c42.96248889 0 77.6722963-36.28752592 77.6722963-80.94909628s-77.6722963-113.35300741-77.6722963-113.35300742z" p-id="1773" fill="#BFCBD9"></path></svg>