<?xml version="1.0" standalone="no"?><!DOCTYPE svg PUBLIC "-//W3C//DTD SVG 1.1//EN" "http://www.w3.org/Graphics/SVG/1.1/DTD/svg11.dtd"><svg t="1557990271233" class="icon" style="" viewBox="0 0 1024 1024" version="1.1" xmlns="http://www.w3.org/2000/svg" p-id="1083" xmlns:xlink="http://www.w3.org/1999/xlink" width="400" height="400"><defs><style type="text/css"></style></defs><path d="M512 241.87638507c188.4766816 0 320.39822187 110.56165973 396.3107552 270.09327466H1012.62222187C932.4316448 314.08734827 738.64533333 144.02749653 512 144.02749653c-226.64533333 0-420.4316448 170.05985173-500.62222187 367.9421632h104.31146667C191.6321184 352.40770347 323.5233184 241.87638507 512 241.87638507z m0 540.21688853c-188.44634027 0-320.3678816-110.56165973-396.28041493-270.12361387H11.37777813c80.19057813 197.94299307 273.94654827 368.0028448 500.62222187 368.00284374s420.4316448-170.02951147 500.62222187-368.00284374h-104.31146667c-75.9428736 159.59229653-207.8340736 270.12361493-396.3107552 270.12361387z" fill="#BFCBD9" p-id="1084"></path><path d="M512 512m-136.53333333 0a136.53333333 136.53333333 0 1 0 273.06666666 0 136.53333333 136.53333333 0 1 0-273.06666666 0Z" fill="#BFCBD9" p-id="1085"></path></svg>