<?xml version="1.0" standalone="no"?><!DOCTYPE svg PUBLIC "-//W3C//DTD SVG 1.1//EN" "http://www.w3.org/Graphics/SVG/1.1/DTD/svg11.dtd"><svg t="1559209919811" class="icon" style="" viewBox="0 0 1024 1024" version="1.1" xmlns="http://www.w3.org/2000/svg" p-id="1182" xmlns:xlink="http://www.w3.org/1999/xlink" width="400" height="400"><defs><style type="text/css"></style></defs><path d="M884.69756839 731.16532939c9.0617679-0.25890765 18.12353581 1.55344592 26.79694222 7.24941431-31.45728-20.19479703-52.16989235-55.40623803-52.16989234-95.66637827V418.14597531c0-164.53581431-118.96806717-301.88632494-277.93736691-335.67377383V74.44606419c0-41.94304-33.91690272-75.73048889-75.73048889-75.73048888s-75.73048889 33.91690272-75.73048889 75.73048888v8.02613729c-158.96929975 33.78744889-277.93736691 171.00850569-277.93736691 335.67377383V642.74836543c0 40.26014025-20.84206617 75.47158124-52.16989236 95.66637827 8.80286025-5.69596839 17.73517431-7.63777581 26.79694222-7.24941431-27.83257283 0.12945383-50.35753876 22.52496592-50.35753875 50.48699258s22.52496592 50.48699259 50.48699259 50.4869926h757.69325038c27.96202667 0 50.48699259-22.52496592 50.48699258-50.4869926 0.12945383-27.70311902-22.3955121-50.35753876-50.22808494-50.48699258zM505.7862163 1009.1026963c69.77561283 0 126.34693531-56.57132247 126.34693531-126.34693532H379.43928098c0 69.77561283 56.44186864 126.34693531 126.34693532 126.34693532z" p-id="1183" fill="#BFCBD9"></path></svg>